<?xml version="1.0" encoding="UTF-8" standalone="no"?>
<!-- Created with Inkscape (http://www.inkscape.org/) -->

<svg
   xmlns:dc="http://purl.org/dc/elements/1.1/"
   xmlns:cc="http://creativecommons.org/ns#"
   xmlns:rdf="http://www.w3.org/1999/02/22-rdf-syntax-ns#"
   xmlns:svg="http://www.w3.org/2000/svg"
   xmlns="http://www.w3.org/2000/svg"
   xmlns:sodipodi="http://sodipodi.sourceforge.net/DTD/sodipodi-0.dtd"
   xmlns:inkscape="http://www.inkscape.org/namespaces/inkscape"
   width="1212.2688"
   height="948.61536"
   id="svg2"
   version="1.1"
   inkscape:version="0.48.4 r9939"
   sodipodi:docname="drawing.svg">
  <defs
     id="defs4" />
  <sodipodi:namedview
     id="base"
     pagecolor="#ffffff"
     bordercolor="#666666"
     borderopacity="1.0"
     inkscape:pageopacity="0.0"
     inkscape:pageshadow="2"
     inkscape:zoom="0.56626196"
     inkscape:cx="-520.29424"
     inkscape:cy="81.717056"
     inkscape:document-units="px"
     inkscape:current-layer="layer1"
     showgrid="false"
     fit-margin-top="0"
     fit-margin-left="0"
     fit-margin-right="0"
     fit-margin-bottom="0"
     inkscape:window-width="1920"
     inkscape:window-height="1096"
     inkscape:window-x="-8"
     inkscape:window-y="-8"
     inkscape:window-maximized="1" />
  <metadata
     id="metadata7">
    <rdf:RDF>
      <cc:Work
         rdf:about="">
        <dc:format>image/svg+xml</dc:format>
        <dc:type
           rdf:resource="http://purl.org/dc/dcmitype/StillImage" />
        <dc:title />
      </cc:Work>
    </rdf:RDF>
  </metadata>
  <g
     inkscape:label="Layer 1"
     inkscape:groupmode="layer"
     id="layer1"
     transform="translate(1136.6499,-121.27009)">
    <path
       style="fill:#ffffff;stroke:none"
       d="m -323.86189,1068.8843 c -7.1603,-1.6114 -14.0496,-5.2824 -17.0343,-9.0767 -1.1082,-1.4088 -2.5617,-5.1216 -3.2301,-8.2507 -1.826,-8.5482 -1.5185,-29.1417 0.5851,-39.1893 l 1.7796,-8.5 7.367,-7.03015 7.367,-7.0301 0,-6.9238 c 0,-6.39629 -1.6424,-26.09793 -2.6029,-31.22289 -0.7442,-3.97103 -13.8579,-18.57764 -19.0875,-21.26043 -2.6453,-1.35704 -8.5581,-4.8835 -13.1397,-7.83657 -4.5815,-2.95307 -8.5991,-5.10023 -8.9279,-4.77146 -0.3287,0.32877 0.3823,2.3415 1.5801,4.47273 1.1979,2.13123 2.1779,4.29891 2.1779,4.81707 0,1.47967 -9.1385,3.21083 -13.7115,2.59746 -3.5223,-0.47244 -4.5189,-0.17237 -6.7125,2.0212 -1.4168,1.41681 -2.576,3.48064 -2.576,4.58629 0,3.53148 -3.6504,4.46997 -17.5,4.49912 -13.0764,0.0275 -21.4569,-1.46769 -28.8345,-5.14459 -2.3937,-1.19296 -5.5044,-1.22925 -20,-0.23333 -26.1671,1.7978 -58.4794,-0.23007 -70.688,-4.43628 -5.0569,-1.74221 -5.6113,-1.54821 -6.4468,2.25581 -0.6409,2.91803 -5.3494,8.03781 -9.215,10.01992 -3.4013,1.74404 -14.1838,1.27698 -20.3157,-0.88001 -3.025,-1.06409 -6.0033,-1.9494 -6.6185,-1.96735 -0.6875,-0.0201 -1.3053,2.8776 -1.6032,7.52058 -0.2666,4.15428 -0.8883,7.94332 -1.3815,8.42009 -0.5111,0.49401 -8.0386,-1.53811 -17.5009,-4.72448 l -16.6041,-5.59135 -7.3959,6.25355 c -9.8477,8.32664 -13.5849,10.41513 -27.0238,15.10185 -10.001,3.48774 -12.4664,3.96719 -20.4478,3.97651 -8.2475,0.01 -9.2777,-0.20442 -11.2894,-2.34584 -1.2176,-1.29604 -4.677,-3.60272 -7.6876,-5.12595 -4.7089,-2.38246 -6.2058,-2.67829 -10.7106,-2.1168 -12.4917,1.55699 -26.1009,1.83596 -31.4262,0.6442 -10.0205,-2.24249 -29.727,-9.15656 -35.9597,-12.61656 -3.3821,-1.8775 -8.6393,-5.44197 -11.6826,-7.92104 -3.0433,-2.47908 -5.7957,-4.50741 -6.1163,-4.50741 -0.3207,0 -3.8727,2.7 -7.8934,6 -4.0208,3.3 -7.9724,6 -8.7815,6 -2.6505,0 -8.7018,-7.38046 -10.8999,-13.29399 -1.2188,-3.27889 -6.0136,-11.09247 -11.0457,-18 -4.8906,-6.71331 -10.7692,-15.32656 -13.0636,-19.14055 -2.2944,-3.814 -5.9032,-8.58183 -8.0197,-10.59517 -2.1165,-2.01334 -3.8481,-4.61874 -3.8481,-5.78977 0,-1.32818 -1.0695,-2.68222 -2.8429,-3.5993 -4.458,-2.30532 -6.4912,-8.8368 -5.6258,-18.07241 0.6911,-7.37468 0.657,-7.53028 -2.4152,-11.02931 -4.8364,-5.50835 -4.0892,-11.35807 2.5902,-20.27843 3.9157,-5.22947 2.7445,-6.20107 -7.4749,-6.20107 -5.5355,0 -9.2792,-0.44784 -10.0314,-1.2 -2.0935,-2.09351 -1.3279,-8.26601 1.7873,-14.40908 1.6431,-3.24001 2.9906,-7.24092 2.9945,-8.89092 0.012,-4.8771 -1.973,-10.58206 -4.592,-13.20106 -1.9865,-1.98655 -3.0504,-2.31958 -5.6677,-1.77423 -5.387,1.12247 -11.6997,5.38987 -20.6722,13.97445 -4.7024,4.49921 -11.4749,10.16498 -15.0499,12.59061 -6.4349,4.36603 -6.5853,4.41003 -15.0134,4.39041 -7.6422,-0.0178 -9.0713,-0.33501 -13.9649,-3.09971 -7.6291,-4.31017 -11.6736,-11.70982 -13.1299,-24.02186 -0.5763,-4.87224 -1.6735,-11.004 -2.4384,-13.62615 -1.7703,-6.06947 -0.8363,-8.70538 5.305,-14.97141 l 4.6446,-4.73894 -1.633,-4.76106 c -0.8982,-2.61858 -2.3606,-9.21913 -3.2498,-14.66789 -0.8892,-5.44876 -2.6838,-12.96118 -3.9881,-16.69427 -2.2132,-6.33473 -2.2804,-7.1413 -1.0082,-12.09316 0.7497,-2.91815 1.7771,-9.16049 2.2832,-13.87187 0.8036,-7.48243 1.3846,-9.22715 4.5925,-13.79103 3.9915,-5.67882 8.6369,-14.5242 10.6459,-20.27137 l 1.2684,-3.62853 -10.9794,-10.99684 c -6.0387,-6.04825 -12.8593,-12.18356 -15.1569,-13.634 -2.2977,-1.45045 -4.1776,-3.2833 -4.1776,-4.07301 0,-3.12058 5.4451,-18.40716 10.0936,-28.33713 5.1925,-11.09181 5.8401,-14.18215 3.3968,-16.20989 -1.7995,-1.49349 -7.3967,-0.90777 -12.7404,1.33324 -2.776,1.16416 -3.7557,2.17032 -3.772,3.87367 -0.012,1.26557 -0.8555,4.1364 -1.8743,6.37963 -4.0263,8.86497 -12.3695,11.15239 -16.7712,4.59814 -1.2276,-1.8278 -2.5307,-5.3153 -2.8958,-7.75 -0.3957,-2.63909 -1.1916,-4.42674 -1.9708,-4.42674 -2.0427,0 -2.7075,5.26725 -1.9463,15.42043 0.718,9.57591 -0.025,12.08536 -2.6439,8.92984 -0.7659,-0.92289 -1.5105,-4.78982 -1.7196,-8.93023 -0.4082,-8.08256 -1.6333,-10.04734 -6.60661,-10.59508 -2.7221,-0.2998 -3.2469,0.21331 -6.7771,6.62617 -4.3032,7.81722 -6.4764,10.54887 -8.3922,10.54887 -2.7538,0 -3.6158,-4.19139 -3.2462,-15.78517 l 0.366,-11.48309 -4.2817,-1.26973 c -5.5248,-1.63836 -7.0968,-3.0127 -9.285,-8.11752 -0.9863,-2.3011 -3.4492,-6.0167 -5.4731,-8.25688 -2.047,-2.26575 -3.4395,-4.69913 -3.1383,-5.48404 0.5703,-1.4863 15.9716,-9.60357 18.2213,-9.60357 0.7214,0 2.2302,-1.16777 3.3529,-2.59505 l 2.0413,-2.59504 -2.3615,-4.65496 c -3.6373,-7.16997 -14.2339,-17.75077 -19.2353,-19.20654 -8.655,-2.51926 -12.4991,0.53592 -14.2381,11.31627 -1.5223,9.43676 -2.8786,10.84278 -7.8825,8.17142 -12.5338,-6.6913 -15.1167,-14.58284 -7.6845,-23.47864 1.9055,-2.28068 3.4645,-4.91992 3.4645,-5.86498 0,-1.91108 -3.0213,-4.93685 -10.5,-10.51536 -5.2349,-3.9048 -41.7742,-42.36488 -50.9014,-53.57712 -7.6279,-9.37033 -9.276,-12.47887 -7.653,-14.43442 2.0408,-2.45902 7.0924,-1.86351 12.0411,1.41946 2.4677,1.63706 10.0553,7.82263 16.8613,13.74572 14.9224,12.98658 26.5907,21.50756 32.5879,23.79789 l 4.4426,1.69667 19.3108,-12.74996 c 10.6209,-7.01247 20.2692,-13.37955 21.4407,-14.14905 1.9105,-1.25487 2.4342,-1.14319 5.0802,1.08329 2.1748,1.83001 3.5406,4.51469 5.1971,10.21568 1.9072,6.56368 2.9538,8.4003 6.9199,12.14345 10.4174,9.83182 16.59101,12.0436 24.45061,8.75968 3.2569,-1.36084 5.0912,-1.20558 24.3721,2.06285 11.4675,1.94395 23.1517,3.92267 25.9648,4.39715 8.1721,1.37838 14.1617,5.07606 26.7071,16.4873 14.4899,13.18004 14.3516,13.16663 30.3294,2.94152 6.5168,-4.17053 14.0988,-8.65096 16.8488,-9.95651 2.75,-1.30556 8.4754,-5.47861 12.7232,-9.27346 5.7702,-5.15498 9.3104,-7.45737 14,-9.10501 11.5058,-4.04245 21.2008,-8.52281 25.4332,-11.75352 7.5659,-5.77517 10.0604,-6.64439 17.1643,-5.98101 6.4183,0.59935 6.4404,0.59245 11.0247,-3.4428 2.5264,-2.22385 5.1697,-5.41387 5.874,-7.08895 1.5448,-3.67401 1.6577,-16.89851 0.2199,-25.76027 -1.4559,-8.97328 0.145,-15.52634 4.4316,-18.14019 3.8066,-2.32113 7.5954,-2.41164 14.5462,-0.34748 2.9041,0.86242 5.5599,1.28828 5.9018,0.94636 0.342,-0.34191 0.4954,-2.08733 0.3411,-3.8787 -0.1543,-1.79137 0.4704,-5.25473 1.3884,-7.69636 0.9179,-2.44163 1.7326,-7.22229 1.8103,-10.62368 0.1219,-5.33674 0.5326,-6.59276 2.9961,-9.16415 l 2.8549,-2.97978 -1.1905,-7.0578 c -1.5117,-8.96269 -1.011,-11.20623 5.4935,-24.61392 7.1297,-14.69639 17.4223,-26.85312 27.9497,-33.01184 2.8239,-1.65205 3.1125,-9.23672 0.6588,-17.31499 -1.1667,-3.84101 -2.1212,-8.05116 -2.1212,-9.3559 0,-3.17114 2.6664,-6.81727 4.9855,-6.81727 1.0296,0 3.4791,-1.51563 5.4433,-3.36808 6.6078,-6.23192 3.5814,-13.34445 -6.1165,-14.37487 -5.7532,-0.61127 -8.6074,-2.71213 -7.7097,-5.67483 0.7141,-2.35685 6.7085,-12.65369 9.8299,-16.88504 4.6732,-6.33518 9.2994,-11.14346 14.776,-15.35763 7.6534,-5.88916 7.772,-8.36345 0.8553,-17.85083 -4.716,-6.46878 -4.9129,-6.99872 -4.4155,-11.87977 0.2863,-2.80992 0.6935,-5.67145 0.9048,-6.35895 0.7044,-2.29211 5.9999,-1.2889 11.8769,2.25 3.1968,1.925 6.417,3.5 7.156,3.5 2.3377,0 3.5085,-3.79598 4.2216,-13.68657 0.9027,-12.51906 1.9633,-13.36595 9.1763,-7.32693 l 5.1906,4.34584 4.6627,-1.67112 c 6.227,-2.23173 9.2305,-2.09312 18.4509,0.85155 4.3039,1.3745 10.1914,2.48723 13.1602,2.48723 4.7155,0 5.9636,-0.4673 10.2119,-3.82334 11.178,-8.83039 29.8481,-21.25197 39.0106,-25.95457 16.6465,-8.54372 26.0561,-9.91511 42.0002,-6.12128 6.7411,1.60401 10.4118,1.94573 15.5224,1.44503 5.1039,-0.50006 7.4073,-0.28654 9.7003,0.89919 4.4603,2.30651 5.9065,2.01869 17.2386,-3.43066 8.1499,-3.91913 11.4373,-4.98808 15.3677,-4.99712 3.1733,-0.007 7.3243,-0.9981 11.362,-2.712 l 6.362,-2.7005 4.5642,5.44763 c 11.0535,13.19298 22.372,21.94762 28.3752,21.94762 1.4774,0 3.7769,-1.37489 5.8131,-3.47572 4.0214,-4.1491 2.7808,-4.32496 24.5235,3.47639 l 16,5.74087 20.5154,0.71716 c 24.4778,0.85568 22.6133,1.8076 27.9402,-14.26464 l 3.5444,-10.69406 3.5,0.21069 c 1.925,0.11589 5.9658,0.56589 8.9796,1 7.2581,1.04551 8.1216,3.16928 5.6138,13.80699 -1.9322,8.19576 -1.6696,10.48232 1.2038,10.48232 3.2393,0 11.3436,6.17861 16.0448,12.23238 2.6822,3.45401 5.1724,5.7189 6.0929,5.54165 0.8561,-0.16488 3.9692,-3.55212 6.9179,-7.5272 6.6471,-8.9607 7.9214,-9.38061 29.107,-9.59187 15.1073,-0.15064 15.6934,-0.0783 21.0402,2.59775 3.025,1.51399 7.0397,3.73803 8.9217,4.94231 3.9859,2.5507 10.2231,2.86429 17.3396,0.8718 6.1825,-1.73099 8.9122,-0.0713 11.1971,6.80807 0.9044,2.72281 2.234,5.17684 2.9547,5.45341 0.7208,0.27656 3.2539,-0.78377 5.6292,-2.3563 8.3173,-5.50626 11.733,-5.73049 35.314,-2.3183 3.9095,0.56572 6.6585,2.66359 21.2239,16.19693 3.3441,3.10715 7.3941,7.89937 9,10.64937 2.7072,4.636 2.9244,5.7644 2.9834,15.5 0.052,8.55974 0.5799,12.16308 2.8578,19.5 3.4279,11.04063 5.2666,14.71661 10.2541,20.5 2.2825,2.64673 4.3742,6.42546 5.0788,9.1753 1.6183,6.3152 8.3518,17.12819 18.6875,30.00933 4.7153,5.87654 9.4296,12.68238 10.4762,15.12407 1.0466,2.4417 3.5183,6.55559 5.4925,9.14197 1.9742,2.58639 3.5895,5.32069 3.5895,6.07624 0,0.75554 0.6301,1.73357 1.4003,2.1734 0.7701,0.43983 3.394,3.27469 5.8308,6.29969 17.1174,21.24878 27.7689,50.93954 27.7689,77.40499 0,7.19408 0.034,7.28741 3.75,10.23538 2.0625,1.63631 6.5360001,4.65309 9.9411001,6.70397 3.6999,2.22848 7.1143,5.22301 8.4857,7.44226 1.2621,2.04237 4.2753,6.14532 6.6960999,9.11767 2.4208,2.97235 6.2093,9.27235 8.419,14 2.2096,4.72765 7.2639,12.87073 11.2316,18.09573 4.6063,6.06584 8.5426,12.64846 10.8891,18.20965 3.5224,8.34808 6.5333,19.64897 6.57,24.65954 0.01,1.30305 1.6477,5.05294 3.6403,8.33308 5.7638,9.48828 6.5443,13.23902 6.8566,32.94834 0.1538,9.70784 0.566,18.11396 0.916,18.68027 0.35,0.56631 1.9644,4.74529 3.5875,9.28662 3.1663,8.85905 2.8877,10.8825 -1.4985,10.8825 -4.4949,0 -3.6507,2.87233 2.5573,8.70081 10.0546,9.43992 10.4103,10.37304 10.4019,27.28205 -0.01,13.27247 -0.2452,15.20304 -2.7837,22.51714 -4.9787,14.34554 -11.1306,25.39357 -19.41,34.85799 -6.655,7.6076 -6.2601,9.01975 6.462,23.10264 6.0364,6.6821 6.288,7.17088 6.288,12.21505 0,9.81202 -2.1818,13.83127 -13.1164,24.16252 l -9.8836,9.3382 0,5.97754 c 0,7.05762 -0.7617,8.69955 -6.8805,14.83235 -2.8391,2.84553 -5.2898,6.53467 -6.3587,9.57186 -1.5412,4.37909 -1.5805,5.39663 -0.3452,8.93543 0.8977,2.57181 1.0719,4.5955 0.4892,5.68426 -0.4976,0.92987 -0.9048,4.16818 -0.9048,7.19624 0,4.00933 -1.4493,9.80229 -5.3327,21.31574 -2.933,8.6956 -6.1154,19.00678 -7.0719,22.91373 -2.5667,10.48435 -4.273,12.67823 -13.2937999,17.09337 -5.5583,2.7205 -9.3831,5.50165 -13.3016001,9.67234 l -5.5,5.85389 0.054,6.71003 c 0.047,5.78602 0.6525,7.96934 4.4,15.85496 4.9089001,10.32972 6.7560001,12.36242 12.7960001,14.08211 2.3375,0.66552 4.25,1.58415 4.25,2.04141 0,0.45725 -3.503,1.03415 -7.7844,1.282 -15.1934001,0.87953 -27.1735001,9.01353 -31.8247001,21.60775 -2.2771,6.16576 -2.7959,6.76405 -8.1791,9.43322 -5.1693,2.5631 -15.2118,11.306 -15.2118,13.24327 0,2.18473 -2.9034,4.01869 -4.2424,2.67972 -0.6367,-0.63669 -1.8892,-1.15762 -2.7833,-1.15762 -1.6747,0 -5.9743,3.95499 -5.9743,5.49546 0,0.4766 -2.4151,4.0476 -5.3669,7.9355 -2.9518,3.888 -7.0656,9.6565 -9.1416,12.81905 -5.1884,7.9036 -6.8588,7.6932 -5.9546,-0.75 0.6001,-5.60365 0.4734,-6.50005 -0.9185,-6.50005 -0.8881,0 -6.678,2.473 -12.8665,5.4955 -6.1886,3.02255 -11.6324,5.49755 -12.0975,5.50005 -0.4651,0 -2.0839,0.8863 -3.5974,1.9639 -1.5134,1.0777 -7.505,3.7954 -13.3146,6.0394 -5.8096,2.244 -11.1658,4.8123 -11.9027,5.7074 -0.7368,0.895 -3.0115,2.842 -5.0548,4.3266 -2.0432,1.4846 -5.5661,5.0411 -7.8286,7.9033 -3.4519,4.367 -20.3022,16.9884 -22.8157,17.0898 -0.3523,0.014 -7.1656,0.1335 -15.1406,0.2652 -14.427,0.2382 -14.5691,0.2633 -28.2203,4.9768 l -13.7204,4.7373 -6.6487,-2.5026 c -7.7913,-2.9326 -10.3816,-3.086 -14.6693,-0.8688 -1.7377,0.8986 -6.4233,1.9999 -10.4124,2.4472 -4.3688,0.49 -10.0189,2.0274 -14.2086,3.8662 -3.8255,1.679 -8.0761,3.0527 -9.4456,3.0527 -1.3696,0 -4.6692,1.108 -7.3324,2.4621 -6.1918,3.1483 -14.8906,3.9194 -23.1766,2.0547 z"
       id="path3039"
       inkscape:connector-curvature="0" />
    <path
       style="fill:#397ccc"
       d="m -321.14991,1069.2555 c -3.3121,-0.4561 -3.3658,-0.5226 -1,-1.2403 2.4369,-0.7392 2.4243,-0.7609 -0.5,-0.8588 -3.6318,-0.1216 -14.359,-5.0857 -16.6569,-7.708 -2.9212,-3.3336 -4.1287,-10.4948 -4.1969,-24.8909 -0.063,-13.2433 1.3961,-25.4597 3.5827,-30 0.5297,-1.1 4.0699,-4.94402 7.8671,-8.54222 l 6.904,-6.5423 10e-4,-5.9577 c 10e-4,-5.5937 -1.5364,-23.95489 -2.6159,-31.2336 -0.7327,-4.94045 -14.2611,-20.62072 -20.5328,-23.79884 -6.107,-3.0949 -15.8523,-9.28597 -15.8523,-10.07111 0,-0.32135 1.1092,0.14247 2.4648,1.03073 4.6498,3.04663 7.0374,2.15885 10.4483,-3.88499 2.9353,-5.20095 5.1982,-6.74696 6.5869,-4.5 1.4872,2.40636 5.2913,0.77426 10.5085,-4.50857 2.9921,-3.02971 5.8491,-5.37224 6.3489,-5.20563 0.4999,0.16661 1.4155,1.85797 2.0348,3.75857 1.0058,3.08646 1.499,3.44902 4.617,3.39376 1.9199,-0.034 5.5424,-0.40975 8.0499,-0.83492 l 4.5592,-0.77305 -0.4186,3.58492 c -0.3605,3.08836 -0.1332,3.58492 1.6412,3.58492 1.1329,0 2.4196,-0.5625 2.8594,-1.25 0.4399,-0.6875 3.8111,-3.85263 7.4917,-7.03362 5.6318,-4.86738 7.1075,-5.67932 9.3151,-5.12525 2.0307,0.50969 3.2552,0.0528 5.4222,-2.02339 1.5395,-1.47496 4.9978,-3.34225 7.6849,-4.14954 3.6393,-1.09332 6.1615,-2.84113 9.8858,-6.85068 5.9217,-6.37516 10.7922,-8.13221 19.737,-7.12022 6.4419,0.72882 7.2765,-0.20741 3.6375,-4.08087 l -2.1254,-2.26247 2.6162,-4.46425 c 4.064,-6.93465 7.2953,-10.29697 12.1581,-12.65101 5.6407,-2.73061 5.7056,-4.39611 0.4766,-12.22656 -5.5951,-8.37873 -5.4016,-9.16746 2.75,-11.21187 11.9341,-2.99304 24.25,-10.03367 24.25,-13.86297 0,-0.77452 -1.125,-3.06599 -2.5,-5.09216 -1.375,-2.02618 -2.5,-4.11397 -2.5,-4.63955 0,-0.52557 2.2132,-0.95559 4.9182,-0.95559 8.4904,0 9.5222,-1.3084 6.5818,-8.34576 -0.825,-1.9745 -1.5,-5.41015 -1.5,-7.63478 0,-3.6375 3.2856,-17.63835 4.4009,-18.75369 0.2472,-0.24715 2.1101,0.15116 4.1399,0.88515 3.632,1.31333 3.7364,1.27966 6.5749,-2.12043 1.5864,-1.90022 2.8843,-3.72609 2.8843,-4.0575 0,-0.87996 5.989,-3.59203 9.7623,-4.42079 1.7899,-0.39312 3.7006,-1.5486 4.246,-2.56774 1.7945,-3.35292 1.0472,-11.44471 -1.8513,-20.04687 -3.5462,-10.52435 -4.5294,-16.93759 -2.5966,-16.93759 1.5787,0 8.4396,-5.76765 8.4396,-7.09479 0,-0.48818 1.4228,-4.06954 3.1617,-7.95857 2.592,-5.79699 3.8461,-7.4201 6.9602,-9.0088 2.0891,-1.06581 4.6842,-1.93784 5.7669,-1.93784 4.0259,0 5.1249,-2.53164 4.4732,-10.3041 -0.754,-8.9913 0.8602,-19.68821 4.0643,-26.93327 3.0232,-6.83602 5.6151,-16.49113 4.9161,-18.3128 -0.2856,-0.7442 -2.0189,-1.84803 -3.8519,-2.45296 -4.5969,-1.51713 -11.3362,-6.56427 -12.668,-9.48723 -0.8967,-1.96804 -0.6793,-3.41488 1.1531,-7.67453 1.8849,-4.38161 2.1517,-6.28884 1.6138,-11.53868 -0.7131,-6.96037 0.3248,-10.02534 4.8156,-14.22074 1.4273,-1.33338 2.595,-3.06048 2.595,-3.838 0,-0.77753 -1.5167,-4.86338 -3.3705,-9.07968 -4.4319,-10.07993 -5.0602,-14.32633 -3.1308,-21.15801 0.8543,-3.025 1.8313,-7.22796 2.1711,-9.33991 l 0.6177,-3.83992 -5.8937,0.83992 c -10.8644,1.54828 -15.0404,0.9948 -19.178,-2.54184 -10.2233,-8.73853 -15.5399,-12.06032 -23.463,-14.65936 -4.539,-1.48899 -8.6334,-3.0545 -9.0986,-3.47892 -0.4652,-0.42442 0.9752,-3.7911 3.201,-7.48152 2.2258,-3.69041 4.5584,-9.17346 5.1835,-12.18455 1.0548,-5.08091 0.9533,-5.84486 -1.4101,-10.62056 l -2.5467,-5.14584 3.0859,-4.8089 c 4.54,-7.07504 4.6334,-11.3198 0.5114,-23.2386 -1.9022,-5.5 -3.7748,-12.925 -4.1614,-16.5 -0.4455,-4.11937 -1.9227,-9.06822 -4.0335,-13.51218 -5.0064,-10.54016 -6.8613,-22.11403 -6.1481,-38.36175 0.455,-10.36546 0.2756,-13.96466 -0.7975,-16 -2.1834,-4.14114 -11.6598,-12.87841 -15.8625,-14.62524 -3.6865,-1.53229 -3.9826,-1.50057 -8.2488,0.88384 l -4.4249,2.47318 -0.6155,-2.45225 c -0.7477,-2.97913 -3.9877,-5.4056 -7.2179,-5.4056 -1.5368,0 -3.8598,-1.58392 -6.5275,-4.45076 -3.7589,-4.03949 -5.2504,-4.79341 -16.1416,-8.1588 -18.7538,-5.79497 -29.8034,-8.51032 -32.2136,-7.91622 -1.2368,0.30486 -3.3749,2.52705 -4.8451,5.03571 -1.4472,2.46954 -3.1578,4.49007 -3.8013,4.49007 -1.05,0 -9.8111,-19.54621 -10.9815,-24.5 -0.2599,-1.1 -0.76,-3.28555 -1.1114,-4.85677 -0.6834,-3.05643 -0.3366,-3.01905 -9.5501,-1.02928 -2.0992,0.45334 -3.0159,-0.18704 -5.6815,-3.96877 -1.7482,-2.48013 -4.3652,-5.28685 -5.8155,-6.23716 -2.5222,-1.65259 -2.928,-1.6334 -9.3185,0.44047 -14.2728,4.6319 -22.6631,4.94829 -30.1815,1.13808 -4.107,-2.0814 -6.1077,-4.19191 -8.5189,-8.98657 -2.2564,-4.48687 -3.2657,-5.09785 -7.2245,-4.37341 -5.5327,1.01245 -7.8054,-0.15681 -9.6395,-4.95928 -2.0322,-5.3212 -4.3974,-7.63308 -11.9114,-11.64278 l -5.7833,-3.08611 -7.1095,2.1173 c -8.1465,2.42613 -9.8217,2.35042 -31.3129,-1.41523 -8.25,-1.44555 -20.1167,-2.96853 -26.3704,-3.38438 l -11.3705,-0.75611 -1.9316,-6.30135 c -2.9712,-9.69289 -6.0514,-9.50692 -9.6422,0.58217 -1.1196,3.14555 -2.2902,6.90618 -2.6013,8.35695 -0.4191,1.95407 -1.6697,3.07288 -4.8249,4.3164 -2.3425,0.92325 -5.0069,2.64267 -5.9208,3.82095 l -1.6617,2.14232 -4.4985,-4.14657 c -4.6058,-4.24543 -9.6843,-6.03844 -13.5911,-4.79846 -2.6166,0.83046 -2.6455,3.1644 -0.087,7.02759 2.3546,3.55531 2.5487,5.5 0.5492,5.5 -4.3121,0 -11.9998,2.50823 -14.7306,4.80609 -3.6584,3.07833 -6.3733,8.7833 -7.3495,15.44391 -0.5957,4.06447 -1.0233,4.75 -2.9624,4.75 -1.2463,0 -4.9077,2.06476 -8.1364,4.58836 -3.2287,2.52359 -8.4949,5.9238 -11.7028,7.55602 l -5.8325,2.96767 0.4333,11.69398 c 0.2383,6.43168 0.7784,12.70829 1.2002,13.94802 0.6451,1.89634 -0.1202,3.06649 -4.8227,7.37364 -6.5248,5.97621 -7.296,7.71428 -5.2116,11.74504 1.4156,2.73759 1.3819,3.31492 -0.4266,7.29998 -1.2523,2.75958 -1.9717,6.54175 -1.9857,10.43979 -0.019,5.26819 -0.4363,6.63392 -3.0219,9.8875 -3.2448,4.08301 -3.6183,6.04905 -1.8756,9.8738 0.9303,2.04165 0.7768,2.95655 -0.8883,5.29705 -2.8238,3.96916 -5.2362,12.72759 -5.2362,19.01065 0,5.2553 -0.036,5.3185 -3.0321,5.3185 -4.2142,0 -9.5895,2.42441 -10.9304,4.92991 -0.8023,1.49909 -0.8269,3.16714 -0.086,5.83466 0.5706,2.05449 1.04,4.44075 1.043,5.30281 0.01,2.48101 -10.1073,5.09288 -22.7135,5.8644 -10.231,0.62614 -11.5321,0.92821 -14.0289,3.257 -4.3576,4.06445 -6.8515,4.95194 -19.2504,6.85074 -8.9379,1.36877 -12.5424,2.38777 -15.4672,4.37258 -4.0751,2.76543 -8.3108,3.28742 -11.8501,1.46035 -1.2014,-0.62015 -7.3593,-6.41469 -13.6843,-12.87675 l -11.5,-11.74919 -11,-3.67235 c -15.124,-5.04915 -16.8998,-5.93259 -22.5521,-11.21967 -4.8867,-4.57092 -4.9479,-4.7038 -4.9466,-10.74133 7e-4,-3.36224 -0.4994,-9.71316 -1.1113,-14.11316 -2.3027,-16.55685 2.8559,-21.51428 17.7011,-17.01082 7.3546,2.2311 7.4089,2.20163 7.4089,-4.0213 0,-3.04266 0.7348,-7.20516 1.6329,-9.25 0.9772,-2.22478 1.57,-6.00216 1.4761,-9.40584 -0.1388,-5.03515 0.195,-6.08865 2.9087,-9.17936 l 3.0655,-3.49141 -1.1574,-6.64593 c -1.5823,-9.0864 -0.781,-12.72941 5.5655,-25.30277 6.3708,-12.62127 14.5742,-22.88131 22.7416,-28.44279 7.6615,-5.21697 8.9732,-9.07216 6.339,-18.63159 -3.6748,-13.33601 -3.4168,-16.04928 1.7022,-17.90035 4.3207,-1.56235 8.5307,-5.99158 9.2863,-9.7698 1.0939,-5.46951 -5.9874,-11.44803 -13.5596,-11.44803 -1.7894,0 -3.301,-0.61875 -3.6344,-1.48768 -0.5483,-1.42886 5.491,-12.33292 11.7832,-21.27481 1.6497,-2.34437 5.0866,-5.94437 7.6376,-8 10.0524,-8.10032 11.5192,-9.96208 10.8924,-13.82484 -0.3181,-1.95986 -2.6301,-6.29137 -5.19,-9.72347 -3.7466,-5.02291 -4.5103,-6.73096 -4.053,-9.0642 0.3099,-1.58125 0.5634,-3.94375 0.5634,-5.25 0,-3.40662 3.0382,-3.08723 10.7014,1.125 3.5021,1.925 7.0499,3.5 7.8841,3.5 2.4226,0 4.5175,-6.58441 5.1369,-16.14592 0.3293,-5.08152 1.0158,-8.85408 1.6113,-8.85408 0.5707,0 3.2629,1.87643 5.9828,4.16985 4.7518,4.00677 5.0672,4.11821 8.0644,2.84954 5.8475,-2.47521 11.8135,-2.3609 20.5325,0.39342 4.5044,1.42296 10.2582,2.58719 12.7862,2.58719 4.1262,0 5.5274,-0.69942 13.6984,-6.83746 19.743,-14.83094 37.2716,-25.37999 48.3205,-29.08008 8.1357,-2.72453 18.4014,-2.70349 30.983,0.0635 8.1384,1.78983 10.4561,1.95923 13.9652,1.02069 3.6056,-0.96434 4.8242,-0.84533 8.5203,0.83206 2.3722,1.07654 5.0279,1.96723 5.9017,1.97931 0.8737,0.0121 6.1896,-2.22803 11.8131,-4.97803 7.5516,-3.69293 11.3745,-5 14.6238,-5 4.8583,0 15.8036,-3.65844 14.9718,-5.00429 -0.2895,-0.46845 0.414,-1.1502 1.5635,-1.51502 2.1154,-0.67141 3.4391,-0.0597 3.4391,1.58927 0,1.84829 9.2157,12.39343 15.4926,17.72759 6.6669,5.66559 12.9377,9.14174 16.5613,9.18049 1.1296,0.0121 3.6046,-1.58386 5.5,-3.54652 4.1966,-4.34565 3.3762,-4.45923 25.3759,3.5134 9.4698,3.43185 18.062,5.96492 19.8756,5.85954 1.757,-0.1021 10.4166,0.17227 19.2434,0.60972 l 16.0488,0.79535 3.1802,-2.67603 c 2.5246,-2.12427 3.8046,-4.69914 6.2082,-12.48807 1.6653,-5.39663 3.6294,-10.31123 4.3645,-10.92135 0.9873,-0.81936 2.4883,-0.73779 5.7431,0.3121 2.4235,0.78177 5.5314,1.34095 6.9064,1.24261 2.1444,-0.15336 2.5453,0.29311 2.8184,3.13869 0.277,2.88592 -0.561,8.32451 -2.43,15.77139 -0.6493,2.58698 1.9048,5.40146 4.9331,5.43592 3.3202,0.0378 11.285,6.4014 14.9261,11.9256 1.7888,2.71396 4.0346,5.14185 4.9905,5.39531 2.3904,0.63377 5.755,-2.23732 10.2209,-8.72164 2.0748,-3.01248 5.0449,-6.00434 6.6002,-6.64857 1.7317,-0.7173 9.5364,-1.23029 20.1344,-1.32342 17.057,-0.14988 17.3811,-0.1127 22.4857,2.57891 2.8485,1.50205 5.4554,3.17785 5.7929,3.72402 0.3376,0.54617 2.789,1.63902 5.4477,2.42855 4.2483,1.26161 5.6875,1.24821 11.8799,-0.1106 3.8753,-0.85036 7.7058,-1.29294 8.5121,-0.9835 0.8064,0.30945 2.2686,2.73341 3.2494,5.38659 0.9807,2.65318 2.2107,5.38646 2.7334,6.07396 1.2712,1.67227 5.1788,1.58932 6.6144,-0.1404 0.6346,-0.76472 3.4936,-2.39691 6.3532,-3.62708 4.4898,-1.93148 6.2253,-2.14586 12.7185,-1.57114 12.7639,1.12974 19.4481,2.11461 21.1898,3.12218 0.9188,0.53154 6.1594,5.01644 11.6457,9.96644 7.4877,6.7558 10.7701,10.52626 13.1634,15.12082 3.0061,5.77078 3.1738,6.6572 2.933,15.5 -0.232,8.52049 0.084,10.40143 3.4557,20.54479 3.6135,10.87211 5.0922,13.62489 10.6543,19.83438 1.478,1.65 3.2593,5.13139 3.9585,7.73643 1.8108,6.74743 8.4824,17.57948 18.4772,30.00003 4.7518,5.90505 9.7636,13.10505 11.1372,16 3.0838,6.49907 7.7583,13.4171 14.3678,21.26354 17.1682,20.38108 27.4535,46.53146 28.7121,73 l 0.6182,13 4.0277,3.75756 c 2.2153,2.06666 6.8103001,5.3853 10.2113001,7.37476 3.4009,1.98947 6.9773,4.96101 7.9475,6.60344 0.9702,1.64243 3.7771,5.45777 6.2376,8.47854 2.4603999,3.02078 6.3201999,9.38333 8.5772999,14.13901 2.2571,4.75568 7.3523,12.92169 11.3226,18.14669 8.9799,11.81756 14.8184,24.93125 16.7654,37.65661 1.0886,7.11455 2.1469,10.18483 5.4135,15.70517 4.8693,8.22874 5.9504,14.17662 6.1141,33.63753 0.1073,12.75292 0.308,14.04606 3.6302,23.38794 1.9341,5.43874 3.3911,9.95711 3.2378,10.04082 -0.1533,0.0837 -1.6287,0.59242 -3.2787,1.13047 -4.9394,1.61069 -4.5823,5.3137 0.9497,9.84671 6.3554,5.2078 9.8277,10.09398 10.6214,14.94649 l 0.6786,4.14826 0.2587,-4 0.2588,-4 0.7788,5 c 0.9846,6.3216 0.9575,21.05623 -0.046,25 -0.7176,2.82003 -0.7741,2.85002 -0.9419,0.5 -0.1124,-1.57468 -0.846,-0.0942 -1.9821,4 -3.9904,14.38085 -13.4431,32.51377 -20.0688,38.49764 -3.3659,3.0398 -5.2131,7.28833 -4.5271,10.41197 0.3339,1.52 4.1839,6.77466 8.5556,11.67702 7.9275,8.88982 7.9485,8.92823 7.9564,14.53764 0.013,9.3595 -1.776,12.61784 -12.9078,23.50736 l -10.0879,9.86837 0,5.81574 c 0,6.68944 -0.8971,8.77855 -5.5282,12.84472 -3.8644,3.39301 -8.47,12.03143 -8.47,15.88666 0,1.45994 0.5059,4.10568 1.1242,5.87942 0.8324,2.38758 0.8324,3.51691 0,4.34922 -0.6183,0.61833 -1.1242,3.86361 -1.1242,7.21172 0,4.6574 -1.1805,9.60249 -5.0252,21.05 -2.7639,8.22939 -5.7026,17.66252 -6.5305,20.96252 -2.9542,11.77581 -3.9335,13.12018 -12.7853999,17.55067 -9.7063,4.85819 -18.0579001,13.00371 -19.7409001,19.25387 -0.8771,3.25742 -0.7779,5.42772 0.4815,10.53123 1.967,7.97079 9.4288001,22.27031 12.3921001,23.74767 2.0025,0.99831 1.7181,1.20802 -3.0997,2.2862 -2.9174001,0.65289 -8.0261001,2.47421 -11.3525001,4.04738 -7.2249,3.41683 -14.2941,11.41976 -16.8291,19.05197 -1.4952,4.50166 -2.2384,5.30178 -7.5575,8.13685 -5.5171,2.94059 -15.0636,11.72637 -16.0911,14.80907 -0.3606,1.0819 -0.9089,1.1302 -2.594,0.2283 -3.4165,-1.8284 -6.6679,0.1325 -9.997,6.0291 -1.6544,2.9302 -4.5576,7.1817 -6.4517,9.4476 -1.894,2.266 -4.925,6.4285 -6.7356,9.25 -1.8105,2.82163 -3.5211,5.13013 -3.8012,5.13013 -0.2801,0 -0.2173,-1.9469 0.1395,-4.32643 0.7797,-5.1993 -0.01,-7.6736 -2.4396,-7.6736 -0.9921,0 -6.0065,2.0583 -11.143,4.5741 -11.2532,5.51163 -10.8619,5.31653 -18.3391,9.14503 -3.3,1.6897 -9.825,4.5387 -14.5,6.3312 -5.704,2.1871 -10.098,4.6885 -13.3581,7.6044 -2.672,2.3899 -5.2173,4.3453 -5.6562,4.3453 -0.4389,0 -2.3555,2.1678 -4.2591,4.8174 -3.3411,4.6506 -12.4834,11.9397 -19.7266,15.7279 -2.8549,1.4931 -5.4352,1.7855 -14,1.5866 -12.2508,-0.2846 -20.0744,1.1571 -34.911,6.4333 l -10.3803,3.6914 -8.1253,-2.7 -8.1253,-2.6999 -5.4791,1.9736 c -3.0134,1.0855 -8.0181,2.2052 -11.1214,2.4883 -3.1034,0.2831 -8.9449,1.9022 -12.9811,3.598 -4.0362,1.6959 -8.3746,3.0834 -9.6408,3.0834 -1.2662,0 -4.5222,1.125 -7.2357,2.5 -2.7134,1.375 -5.9609,2.5448 -7.2167,2.5997 -2.2096,0.097 -2.2026,0.1227 0.2167,0.8127 2.1198,0.6046 1.7563,0.8176 -2.3895,1.4003 -5.0378,0.7081 -5.6808,0.7018 -11.6105,-0.1147 z m 200.182,-401.69803 c 1.6233,-3.56292 -0.2882,-7.5 -3.6415,-7.5 -2.8388,0 -4.196,3.25224 -3.1299,7.5 0.4602,1.83347 1.2947,2.5 3.1299,2.5 1.6988,0 2.8682,-0.80283 3.6415,-2.5 z m -552.0482,299.14243 c -1.2181,-1.29667 -4.7772,-3.61226 -7.909,-5.14577 -5.6692,-2.77592 -5.734,-2.7828 -14.7095,-1.562 -11.596,1.57723 -22.8223,1.6322 -28.5153,0.13963 -20.6172,-5.40534 -34.7733,-11.56784 -45.1655,-19.66174 -3.1161,-2.4269 -6.4139,-4.41255 -7.3286,-4.41255 -0.9147,0 -5.036,2.75606 -9.1583,6.12458 l -7.4953,6.12459 -3.4063,-3.30156 c -1.9872,-1.92609 -4.4586,-6.03998 -5.9321,-9.87459 -1.5596,-4.05904 -6.0297,-11.35388 -11.6873,-19.07302 -5.0389,-6.875 -10.9223,-15.53251 -13.0742,-19.23891 -2.1518,-3.70639 -5.1941,-7.65147 -6.7604,-8.76682 -1.5664,-1.11536 -3.3628,-3.58778 -3.992,-5.49427 -0.6292,-1.90649 -2.4292,-4.38149 -4,-5.5 -4.011,-2.85609 -5.3563,-7.70453 -4.5438,-16.37521 0.6529,-6.96818 0.5802,-7.30398 -2.3914,-11.04326 -4.1931,-5.27633 -4.0849,-9.5051 0.4352,-17.01151 5.8755,-9.75718 4.554,-11.57002 -8.4342,-11.57002 l -8.0658,0 0,-4.02852 c 0,-2.4888 1.1466,-6.29994 3,-9.97148 3.3934,-6.72226 3.594,-8.70836 1.5619,-15.4608 -4.1867,-13.91129 -13.8155,-12.83864 -30.9242,3.44494 -5.0257,4.78332 -12.2829,10.7937 -16.127,13.3564 -6.386,4.25728 -7.5081,4.65898 -13,4.65388 -12.1965,-0.0113 -18.467,-3.45411 -23.1734,-12.72337 -2.3792,-4.68593 -3.3268,-8.154 -3.8251,-14 -0.3643,-4.27408 -1.3368,-9.89956 -2.161,-12.50107 -1.9082,-6.02264 -1.2521,-7.93707 4.9769,-14.52338 4.9618,-5.24634 5.0407,-5.42571 3.764,-8.55266 -0.7172,-1.75667 -2.1838,-8.14394 -3.259,-14.19394 -1.0752,-6.05 -3.0711,-14.23795 -4.4355,-18.19545 -2.3957,-6.94932 -2.4288,-7.3955 -0.9653,-13.04325 0.8334,-3.21628 1.8056,-9.20333 2.1604,-13.30454 0.5704,-6.59308 1.1468,-8.20962 4.9761,-13.95676 4.0387,-6.06157 9.2556,-16.50515 10.8862,-21.79299 0.6102,-1.97869 -1.0744,-4.0561 -12.2894,-15.15579 -7.1481,-7.07453 -13.9346,-13.16051 -15.0811,-13.52439 -1.1464,-0.36388 -2.0845,-1.44961 -2.0845,-2.41272 0,-3.60071 3.3291,-13.02131 9.203,-26.04253 6.6326,-14.70304 6.8279,-17.07434 1.6459,-19.98291 -2.3507,-1.31942 -3.2699,-1.27785 -8.8056,0.39821 -6.1929,1.87507 -9.0433,4.32584 -9.0433,7.77546 0,2.76173 -3.7588,9.53824 -5.9375,10.70422 -1.062,0.56839 -3.3326,1.03344 -5.0456,1.03344 -2.695,0 -3.3746,-0.57261 -5.0438,-4.25 -1.061,-2.3375 -1.939,-5.2257 -1.9511,-6.41821 -0.063,-6.23691 -4.2498,-7.42411 -6.573,-1.86391 -0.7969,1.90734 -1.449,4.34772 -1.449,5.42308 0,1.71951 -0.3523,1.60285 -2.9231,-0.96788 -2.1171,-2.11717 -3.88799,-2.92308 -6.42289,-2.92308 -3.3634,0 -3.6703,0.32149 -7.8745,8.25 -6.2828,11.84814 -7.2795,11.21208 -7.2795,-4.64551 l 0,-12.89551 -5.5,-1.82633 c -3.025,-1.00448 -5.6183,-1.83901 -5.7629,-1.85449 -0.1446,-0.0155 -1.4056,-2.44145 -2.8022,-5.39102 -1.3965,-2.94957 -3.8657,-6.63376 -5.487,-8.18709 -1.6213,-1.55333 -2.9479,-3.34042 -2.9479,-3.97131 0,-0.6309 4.1625,-3.09513 9.25,-5.47608 10.2162,-4.78117 13.75,-7.40695 13.75,-10.21681 0,-3.59226 -4.0141,-9.67557 -11.2261,-17.01316 -8.2051,-8.34786 -12.7464,-10.44739 -18.9142,-8.74438 -5.1888,1.43268 -6.7556,3.78047 -8.2471,12.35737 -0.7335,4.21775 -1.6167,7.95183 -1.9629,8.29795 -1.0933,1.09336 -8.6729,-2.92256 -11.2127,-5.94084 -4.7524,-5.64799 -4.4702,-10.12001 1.0563,-16.73476 1.9287,-2.30849 3.5067,-4.96641 3.5067,-5.90648 0,-1.92977 -4.1233,-6.08428 -11.5,-11.587 -7.3819,-5.50665 -49.9735,-51.18999 -55.5931,-59.62878 -1.3238,-1.98782 -2.8569,-3.67532 -3.4069,-3.75 -0.55,-0.0747 -1,-0.92168 -1,-1.88223 0,-1.42498 0.7363,-1.68671 4,-1.42185 5.7255,0.46466 10.159,3.42044 26.3765,17.58508 18.4021,16.0727 29.6776,23.58323 35.4054,23.58323 1.2989,0 7.2793,-3.28236 13.2899,-7.29413 29.4093,-19.62944 30.3021,-20.13003 32.4435,-18.19202 1.0715,0.96966 3.0678,5.43383 4.4363,9.92038 2.3474,7.69598 2.864,8.48941 9.134,14.02835 10.7751,9.51884 15.42999,11.11546 23.26599,7.98013 3.6938,-1.47796 4.9811,-1.37199 25.2702,2.0801 11.758,2.00056 23.1782,3.88903 25.3782,4.19658 7.4701,1.04431 14.8151,5.6785 27.7121,17.48464 8.1441,7.45519 11.9086,9.79597 15.7542,9.79597 1.0098,0 7.168,-3.42244 13.6849,-7.60543 6.5169,-4.18298 14.1407,-8.70222 16.9419,-10.04274 2.8011,-1.34053 8.5802,-5.55132 12.8424,-9.35732 4.9571,-4.42648 9.6079,-7.60815 12.907,-8.82976 9.4904,-3.51414 9.2752,-3.5104 11.6309,-0.20209 2.5405,3.56774 4.5145,3.86277 6.0943,0.91085 0.8237,-1.53898 0.8408,-2.779 0.062,-4.48819 -0.9527,-2.09099 -0.7439,-2.53345 1.8216,-3.8601 2.7252,-1.40926 3.2535,-1.32181 8.8803,1.46996 3.9547,1.96215 6.7138,4.15116 8.1393,6.45766 1.1861,1.9191 4.1492,5.24334 6.5847,7.38718 l 4.4283,3.89789 -5.9494,2.16926 c -6.1929,2.25803 -9.1539,5.05085 -11.6253,10.96495 -1.903,4.55376 -1.773,6.75962 0.4916,8.34583 1.0454,0.73224 2.3904,3.14957 2.9888,5.37183 1.3577,5.04228 4.3842,7.94342 10.4386,10.00637 5.3273,1.81519 7.6718,1.36198 7.6718,-1.48298 0,-3.00998 1.0724,-5.11317 2.607,-5.11317 0.7662,0 1.393,0.4487 1.393,0.99712 0,1.86736 7.2255,9.00288 9.1164,9.00288 1.5534,0 1.8836,0.75539 1.8836,4.30887 0,2.36988 0.6607,5.18238 1.4682,6.25 0.9209,1.21745 1.4801,4.29598 1.5,8.25755 0.032,6.29421 0.041,6.31531 2.7818,6 1.9817,-0.22801 3.2341,-1.28635 4.4825,-3.78786 0.9528,-1.90929 2.6403,-3.80729 3.75,-4.21778 1.8593,-0.68781 2.0194,-0.33717 2.0413,4.47144 0.014,3.19788 0.9702,7.52031 2.4688,11.16566 1.3447,3.27133 2.3465,6.02222 2.2262,6.11309 -0.1203,0.0909 -1.5688,0.6011 -3.2188,1.13384 -2.0416,0.65919 -3.2763,1.90087 -3.8651,3.8869 -1.8825,6.34994 -3.6105,9.18996 -9.639,15.84205 l -6.2747,6.92377 0.6525,9.07623 c 0.6043,8.4061 2.4319,20.27677 4.1301,26.82624 l 0.713,2.75 -8.5893,0 c -8.4333,0 -8.6013,0.0476 -9.2471,2.62042 -0.799,3.18363 1.2665,15.65969 3.3288,20.10608 3.3715,7.26931 12.0019,12.25244 24.1904,13.96734 l 4.3996,0.61901 -0.684,-5.15642 c -0.4413,-3.32625 -0.3169,-5.15643 0.3504,-5.15643 0.5689,0 1.0369,1.4625 1.04,3.25 0.012,6.9674 1.6884,10.08428 6.9922,12.99971 5.1683,2.84098 6.0858,4.60612 3.5068,6.74647 -0.8224,0.68259 -1.9915,2.89683 -2.5978,4.92052 -0.8881,2.96434 -0.7908,4.4252 0.5009,7.51655 1.5796,3.7805 1.6658,3.82762 5.8478,3.19417 8.8583,-1.34179 8.0968,-1.82349 9.284,5.87258 0.5939,3.85 1.9237,10.09841 2.9552,13.88536 1.7184,6.3089 1.7715,7.93363 0.6335,19.40581 -1.4383,14.49912 -1.6033,14.17028 7.1218,14.19352 l 5.75,0.0153 0.015,7.75 c 0.021,10.86999 0.016,10.86494 10.3466,9.32799 10.8288,-1.61106 13.7225,-0.72858 19.4559,5.93341 5.1496,5.98367 8.3431,7.70169 22.1822,11.93339 5.775,1.76587 15.5594,5.87569 21.7431,9.13294 12.5586,6.61521 14.9161,7.12842 15.8398,3.44825 0.5884,-2.3445 0.9166,-2.44863 6.269,-1.98915 3.1065,0.26668 11.2731,0.93013 18.1481,1.47434 6.875,0.5442 13.5167,1.26788 14.7592,1.60819 1.8061,0.49463 3.254,-0.40797 7.2192,-4.50032 5.3321,-5.5031 6.8177,-5.93783 12.3674,-3.61904 4.6436,1.94025 8.6336,1.90316 11.5034,-0.10694 2.1422,-1.50046 2.4386,-1.47137 4.4725,0.43903 3.3586,3.15458 9.2799,4.04212 19.3209,2.89601 l 8.8574,-1.01103 10.3615,5.20652 c 13.0651,6.56505 30.0444,12.32032 36.6385,12.41891 7.1513,0.10692 12.1854,-2.69542 16.7829,-9.3425 6.0017,-8.67734 5.5441,-9.05175 13.3815,10.94761 6.6588,16.99193 7.2199,20.48762 4.6201,28.78434 -1.3187,4.20838 -1.9105,8.06006 -1.5647,10.18426 0.7434,4.56772 -1.6167,8.55281 -8.0735,13.63221 -5.1279,4.03396 -5.5209,4.79902 -7.2297,14.07499 -0.224,1.21619 -1.6958,2.66382 -3.4448,3.38827 -5.2903,2.19134 -7.9718,4.895 -7.9718,8.03785 0,3.45308 2.1333,5.07191 10.4583,7.93613 7.1707,2.46707 11.8397,5.9053 13.5165,9.95346 1.5684,3.78646 4.1634,3.9638 8.2076,0.56088 1.6341,-1.375 3.371,-2.5 3.8599,-2.5 0.4888,0 2.3089,1.38821 4.0446,3.0849 2.3401,2.28758 3.706,2.9122 5.2844,2.41668 1.1708,-0.36752 4.4782,-0.91037 7.3499,-1.20634 3.9406,-0.40614 5.3674,-0.99886 5.8174,-2.41668 0.8475,-2.67043 2.1681,-2.35985 7.08,1.6651 7.1921,5.89341 12.5836,7.77055 20.8034,7.24304 l 7.0876,-0.45485 2.2264,4.28668 c 2.7544,5.30328 2.2328,5.71757 -7.4408,5.90924 -8.085,0.16018 -10.4289,1.46309 -12.7875,7.10815 -1.2831,3.07076 -1.5837,3.20056 -9.0284,3.89819 -11.0032,1.03108 -21.6551,-0.18764 -31.7202,-3.62924 -8.6914,-2.97186 -8.8076,-2.98296 -20.5,-1.95716 -22.4822,1.97242 -52.4043,0.81783 -67.7591,-2.6146 -13.5507,-3.02914 -13.2271,-3.06011 -14.4228,1.38031 -1.0614,3.94169 -3.7204,7.08033 -7.7614,9.16162 -3.5865,1.84715 -14.6711,1.3453 -21.3518,-0.96668 -8.2861,-2.8676 -8.9607,-2.43112 -8.9793,5.81026 -0.01,3.72976 -0.3459,7.29989 -0.75,7.93362 -0.5215,0.81791 -4.9086,-0.27017 -15.1201,-3.75 -7.912,-2.69623 -15.4694,-4.90224 -16.7943,-4.90224 -1.4789,0 -5.4898,2.5077 -10.3892,6.49562 -9.1775,7.47008 -13.8364,9.98634 -26.5913,14.36195 -7.7311,2.65214 -10.6293,3.14244 -18.5757,3.14244 -8.5985,0 -9.6076,-0.2046 -11.6303,-2.35758 z m -320.8614,-363.64243 c 0,-2.475 0.195,-3.4875 0.4334,-2.25 0.2383,1.2375 0.2383,3.2625 0,4.5 -0.2384,1.2375 -0.4334,0.225 -0.4334,-2.25 z"
       id="path3015"
       inkscape:connector-curvature="0" />
  </g>
</svg>
